<svg data-v-fde0c5aa="" xmlns="http://www.w3.org/2000/svg" viewBox="0 0 300 300" class="iconLeft"><!----><defs data-v-fde0c5aa=""><!----></defs><rect data-v-fde0c5aa="" fill="#FFFFFF" x="0" y="0" width="300px" height="300px" class="logo-background-square"></rect><defs data-v-fde0c5aa=""><!----></defs><g data-v-fde0c5aa="" id="4ca24947-b967-4902-bd21-96a975a09d69" fill="#342103" transform="matrix(2.0211412131126654,0,0,2.0211412131126654,91.3559659790434,138.04494883778375)"><path d="M1.97 10.50L1.20 10.50L1.20 1.33L5.99 1.33L5.99 2.04L1.97 2.04L1.97 6.05L5.42 6.05L5.42 6.75L1.97 6.75L1.97 10.50ZM7.56 5.82L7.56 5.82L7.56 5.82Q7.56 4.73 7.70 3.93L7.70 3.93L7.70 3.93Q7.84 3.14 8.15 2.49L8.15 2.49L8.15 2.49Q8.78 1.19 10.50 1.19L10.50 1.19L10.50 1.19Q12.46 1.20 13.08 3.02L13.08 3.02L13.08 3.02Q13.44 4.07 13.44 5.50L13.44 5.50L13.44 5.50Q13.44 6.92 13.30 7.76L13.30 7.76L13.30 7.76Q13.16 8.60 12.85 9.27L12.85 9.27L12.85 9.27Q12.21 10.64 10.50 10.64L10.50 10.64L10.50 10.64Q8.82 10.64 8.16 9.27L8.16 9.27L8.16 9.27Q7.56 8.02 7.56 5.82ZM12.61 5.94L12.61 5.94L12.61 5.94Q12.61 5.18 12.58 4.72L12.58 4.72L12.58 4.72Q12.54 4.26 12.42 3.70L12.42 3.70L12.42 3.70Q12.29 3.14 12.07 2.77L12.07 2.77L12.07 2.77Q11.86 2.41 11.46 2.16L11.46 2.16L11.46 2.16Q11.06 1.92 10.50 1.92L10.50 1.92L10.50 1.92Q9.94 1.92 9.54 2.16L9.54 2.16L9.54 2.16Q9.14 2.41 8.93 2.77L8.93 2.77L8.93 2.77Q8.71 3.14 8.58 3.70L8.58 3.70L8.58 3.70Q8.39 4.56 8.39 5.62L8.39 5.62L8.39 5.62Q8.39 6.68 8.46 7.33L8.46 7.33L8.46 7.33Q8.54 7.98 8.75 8.61L8.75 8.61L8.75 8.61Q9.18 9.91 10.50 9.91L10.50 9.91L10.50 9.91Q11.84 9.91 12.26 8.60L12.26 8.60L12.26 8.60Q12.63 7.48 12.61 5.94ZM14.56 5.82L14.56 5.82L14.56 5.82Q14.56 4.73 14.70 3.93L14.70 3.93L14.70 3.93Q14.84 3.14 15.15 2.49L15.15 2.49L15.15 2.49Q15.78 1.19 17.50 1.19L17.50 1.19L17.50 1.19Q19.46 1.20 20.08 3.02L20.08 3.02L20.08 3.02Q20.44 4.07 20.44 5.50L20.44 5.50L20.44 5.50Q20.44 6.92 20.30 7.76L20.30 7.76L20.30 7.76Q20.16 8.60 19.85 9.27L19.85 9.27L19.85 9.27Q19.21 10.64 17.50 10.64L17.50 10.64L17.50 10.64Q15.82 10.64 15.16 9.27L15.16 9.27L15.16 9.27Q14.56 8.02 14.56 5.82ZM19.61 5.94L19.61 5.94L19.61 5.94Q19.61 5.18 19.58 4.72L19.58 4.72L19.58 4.72Q19.54 4.26 19.42 3.70L19.42 3.70L19.42 3.70Q19.29 3.14 19.07 2.77L19.07 2.77L19.07 2.77Q18.86 2.41 18.46 2.16L18.46 2.16L18.46 2.16Q18.06 1.92 17.50 1.92L17.50 1.92L17.50 1.92Q16.94 1.92 16.54 2.16L16.54 2.16L16.54 2.16Q16.14 2.41 15.93 2.77L15.93 2.77L15.93 2.77Q15.71 3.14 15.58 3.70L15.58 3.70L15.58 3.70Q15.39 4.56 15.39 5.62L15.39 5.62L15.39 5.62Q15.39 6.68 15.46 7.33L15.46 7.33L15.46 7.33Q15.54 7.98 15.75 8.61L15.75 8.61L15.75 8.61Q16.18 9.91 17.50 9.91L17.50 9.91L17.50 9.91Q18.84 9.91 19.26 8.60L19.26 8.60L19.26 8.60Q19.63 7.48 19.61 5.94ZM23.69 10.50L21.84 10.50L21.84 1.33L23.72 1.33L23.72 1.33Q24.75 1.33 25.42 1.53L25.42 1.53L25.42 1.53Q26.08 1.74 26.54 2.25L26.54 2.25L26.54 2.25Q27.01 2.77 27.21 3.66L27.21 3.66L27.21 3.66Q27.41 4.55 27.41 5.92L27.41 5.92L27.41 5.92Q27.41 7.28 27.19 8.18L27.19 8.18L27.19 8.18Q26.96 9.09 26.47 9.59L26.47 9.59L26.47 9.59Q25.98 10.09 25.33 10.30L25.33 10.30L25.33 10.30Q24.67 10.50 23.69 10.50L23.69 10.50ZM25.36 9.49L25.36 9.49L25.36 9.49Q25.96 9.18 26.27 8.34L26.27 8.34L26.27 8.34Q26.59 7.49 26.59 5.92L26.59 5.92L26.59 5.92Q26.59 4.34 26.28 3.49L26.28 3.49L26.28 3.49Q25.97 2.65 25.38 2.34L25.38 2.34L25.38 2.34Q24.79 2.03 23.72 2.03L23.72 2.03L22.61 2.03L22.61 9.80L23.69 9.80L23.69 9.80Q24.77 9.80 25.36 9.49ZM41.29 10.50L40.52 10.50L40.52 9.06L36.53 2.79L36.48 2.79L36.48 10.50L35.71 10.50L35.71 1.33L36.47 1.33L40.47 7.67L40.52 7.67L40.52 1.33L41.29 1.33L41.29 10.50ZM47.96 10.50L43.15 10.50L43.15 1.33L47.92 1.33L47.92 2.02L43.92 2.02L43.92 5.49L47.54 5.49L47.54 6.17L43.92 6.17L43.92 9.81L47.96 9.81L47.96 10.50ZM52.09 2.04L49.67 2.04L49.67 1.33L55.30 1.33L55.30 2.04L52.86 2.04L52.86 10.50L52.09 10.50L52.09 2.04ZM58.44 10.50L57.05 10.50L56.03 1.33L56.83 1.33L57.76 9.80L57.92 9.80L59.15 5.38L59.89 5.38L61.07 9.80L61.24 9.80L62.17 1.33L62.97 1.33L61.95 10.50L60.54 10.50L59.53 6.55L59.49 6.55L58.44 10.50ZM63.56 5.82L63.56 5.82L63.56 5.82Q63.56 4.73 63.70 3.93L63.70 3.93L63.70 3.93Q63.84 3.14 64.15 2.49L64.15 2.49L64.15 2.49Q64.78 1.19 66.50 1.19L66.50 1.19L66.50 1.19Q68.46 1.20 69.08 3.02L69.08 3.02L69.08 3.02Q69.44 4.07 69.44 5.50L69.44 5.50L69.44 5.50Q69.44 6.92 69.30 7.76L69.30 7.76L69.30 7.76Q69.16 8.60 68.85 9.27L68.85 9.27L68.85 9.27Q68.21 10.64 66.50 10.64L66.50 10.64L66.50 10.64Q64.82 10.64 64.16 9.27L64.16 9.27L64.16 9.27Q63.56 8.02 63.56 5.82ZM68.61 5.94L68.61 5.94L68.61 5.94Q68.61 5.18 68.58 4.72L68.58 4.72L68.58 4.72Q68.54 4.26 68.42 3.70L68.42 3.70L68.42 3.70Q68.29 3.14 68.08 2.77L68.08 2.77L68.08 2.77Q67.86 2.41 67.46 2.16L67.46 2.16L67.46 2.16Q67.06 1.92 66.50 1.92L66.50 1.92L66.50 1.92Q65.94 1.92 65.54 2.16L65.54 2.16L65.54 2.16Q65.14 2.41 64.92 2.77L64.92 2.77L64.92 2.77Q64.71 3.14 64.58 3.70L64.58 3.70L64.58 3.70Q64.39 4.56 64.39 5.62L64.39 5.62L64.39 5.62Q64.39 6.68 64.46 7.33L64.46 7.33L64.46 7.33Q64.54 7.98 64.75 8.61L64.75 8.61L64.75 8.61Q65.18 9.91 66.50 9.91L66.50 9.91L66.50 9.91Q67.84 9.91 68.26 8.60L68.26 8.60L68.26 8.60Q68.63 7.48 68.61 5.94ZM73.75 6.73L73.75 6.73L73.75 6.73Q73.00 6.78 72.77 6.78L72.77 6.78L71.62 6.78L71.62 10.50L70.85 10.50L70.85 1.33L72.91 1.33L72.91 1.33Q74.62 1.33 75.42 1.92L75.42 1.92L75.42 1.92Q76.22 2.51 76.22 3.99L76.22 3.99L76.22 3.99Q76.22 4.98 75.82 5.59L75.82 5.59L75.82 5.59Q75.42 6.19 74.54 6.57L74.54 6.57L74.54 6.57Q75.49 8.37 76.27 10.50L76.27 10.50L75.43 10.50L75.43 10.50Q74.66 8.46 73.75 6.73ZM72.88 2.03L72.88 2.03L71.62 2.03L71.62 6.08L72.74 6.08L72.74 6.08Q74.03 6.08 74.72 5.61L74.72 5.61L74.72 5.61Q75.40 5.14 75.40 3.99L75.40 3.99L75.40 3.99Q75.40 2.84 74.80 2.44L74.80 2.44L74.80 2.44Q74.19 2.03 72.88 2.03ZM82.10 2.04L82.46 1.33L83.34 1.33L83.34 1.33Q81.94 4.13 80.84 5.78L80.84 5.78L80.84 5.78Q81.26 6.41 81.90 7.59L81.90 7.59L83.44 10.50L82.50 10.50L82.50 10.50Q80.93 7.43 80.18 6.23L80.18 6.23L78.76 6.37L78.76 10.50L77.99 10.50L77.99 1.33L78.76 1.33L78.76 5.66L80.12 5.52L80.12 5.52Q81.12 4.00 82.10 2.04L82.10 2.04Z"></path></g><defs data-v-fde0c5aa=""><!----></defs><g data-v-fde0c5aa="" id="043b1534-0836-469c-ada7-0df13609e6dd" stroke="none" fill="#E56500" transform="matrix(0.4531312512590287,0,0,0.4531312512590287,37.734343743704855,127.34343657276928)"><path d="M13.705 46.882a31.753 31.753 0 0 1 7.66-1.457c6.631-.441.384 4.153-1.835 5.441-1.61.934-2.27 2.605-1.93 4.339a.387.387 0 0 0 .307.226c.631.114 1.264.218 1.899.313 4.46.14 4.4 3.004 1.431 5.494-1.372 1.15-2.886 2.795-3.218 4.592-.604 3.274 7.615 4.675 9.745 4.653.952-.01 3.686-1.465 1.439-1.441-2.375.025-4.225-1.001-6.223-2.138-3.371-1.919-.171-4.455 1.324-5.871 1.848-1.75 3.961-3.415 1.902-5.875-.404-.483-1.758-.667-2.286-.763-5.947-1.077-1.315-3.377.833-4.788 1.956-1.285 3.603-2.808 2.5-5.271-.1-.223-.391-.259-.602-.271-4.571-.247-8.888.296-13.254 1.677-1.93.61-1.654 1.761.308 1.14zM33.719 32.275a1.23 1.23 0 0 1-.071.403c.025.02.046.044.071.065v-.468z"></path><path d="M94.948 75.79L69.861 20.447c-.097-.214-.294-.329-.548-.342l-3.161.095c-.298-.595-.683-1.066-1.212-1.324-.64-.326-1.514-.489-2.562-.489-1.607 0-3.517.408-4.565.955-.501.268-.757.675-.885 1.141l-5.264.151a.625.625 0 0 0-.408.198.576.576 0 0 0-.151.431l.012.116a.566.566 0 0 0-.512-.303h-3.401c-.256-.652-.606-1.165-1.141-1.479-.967-.571-2.329-.687-3.296-.687-1.444 0-2.946.256-3.843.664-.675.303-.978.873-1.071 1.502h-4.716c-.012 0-.023.012-.035.012-.023 0-.035-.012-.047 0-.035 0-.058.012-.082.023-.035.012-.058.012-.082.023a.248.248 0 0 0-.105.082c-.023.012-.047.023-.07.047-.035.035-.058.082-.082.116-.012.023-.023.035-.035.058-.023.07-.047.14-.047.221v6.497c-2.228-1.48-7.295-2.244-12.31-2.244-6.708 0-13.497 1.363-13.497 3.971v2.329c0 .163.035.314.082.466C5.722 33.586 5 34.949 5 36.486c0 0 0 37.219.012 37.289v.012c.058.699.408 1.328.978 1.898-.012.07-.023.14-.023.198 0 3.214 6.265 5.73 14.278 5.73 8.001 0 14.277-2.515 14.277-5.73 0-.07-.023-.128-.035-.198.571-.571.92-1.199.978-1.898v-.012c.003-.017.005-2.201.007-5.489l15.017 9.563c.093.07.21.093.314.093h5.043c.047.012.07.035.105.035h.082c.035-.012.058-.023.093-.035h1.304c.221.326.431.641.571.873.489.804 1.898 1.165 3.074 1.165 1.304 0 2.306-.419 2.737-1.176.14-.256.245-.547.326-.862h7.628a.587.587 0 0 0 .477-.245.589.589 0 0 0 .07-.536l-.163-.443 1.025.606c.093.047.186.07.291.07h.012c.128.012.28-.058.396-.163l7.081-.21a.4.4 0 0 0 .058.082c.501.71 1.735.967 2.737.967 1.491 0 2.632-.524 3.051-1.386-.027.056-.066.107-.1.16l7.735-.233a.583.583 0 0 0 .512-.821zM58.361 20.367c.745-.396 2.411-.815 4.018-.815.862 0 1.572.128 2.05.361.943.466 1.304 2.69 1.584 4.472.151.897.291 1.747.489 2.422.675 2.201 4.495 8.583 6.149 10.493.303.349.326 1.269.245 2.387L61.54 26.143l-2.259-5.357c-.093-.233-.28-.361-.559-.361l-.431.012.07-.07zm-18.971.268c.745-.326 2.131-.559 3.377-.559 1.165 0 2.131.186 2.713.536.897.524 1.106 2.76 1.269 4.565.082.908.163 1.77.314 2.457.512 2.236 3.878 8.874 5.392 10.889.443.594.093 2.562-.279 4.53l-7.744-10.83-3.75-10.749a.577.577 0 0 0-.559-.396H39.04c.059-.199.164-.362.35-.443zm-19.146 6.442c7.431 0 12.194 1.624 12.31 2.763v.089a.614.614 0 0 1-.129.281c-2.282-1.293-7.255-1.968-12.181-1.968-4.938 0-9.91.675-12.193 1.968-.082-.105-.14-.221-.14-.326 0-1.142 4.81-2.807 12.333-2.807zm-1.63 2.468l-1.537-.151a53.45 53.45 0 0 1 3.168-.105c5.427 0 9.433.792 11.25 1.63-1.817.908-5.823 1.782-11.25 1.782a43.21 43.21 0 0 1-5.543-.338l4.949-.897c.815-.151.885-.629.873-.827-.035-.872-1.607-1.07-1.91-1.094zm-7.419.664l-1.118.699a2.41 2.41 0 0 0-.396.314c-.256-.105-.489-.21-.687-.303.536-.256 1.293-.489 2.201-.71zm-3.284 1.398c2.224 1.491 7.302 2.259 12.333 2.259 5.019 0 10.097-.769 12.321-2.259l-.011.007v.642c.001-.014.011-.029.011-.044 0 1.153-4.798 2.818-12.321 2.818S7.911 33.365 7.911 32.212v-.605zm12.333 48.841c-6.72 0-11.657-1.817-12.834-3.703 2.888 1.665 7.954 2.539 12.834 2.539 4.879 0 9.945-.873 12.833-2.539-1.176 1.887-6.125 3.703-12.833 3.703zm14.068-6.894c0 .221-.058.454-.198.687-1.036 1.956-6.452 3.878-13.87 3.878-7.418 0-12.834-1.922-13.882-3.878a1.32 1.32 0 0 1-.198-.687V36.486c0-1.153.524-2.166 1.339-2.865 1.945 1.689 7.36 2.574 12.74 2.574 5.369 0 10.784-.885 12.729-2.574.815.699 1.339 1.712 1.339 2.865l.001 37.068zm1.16-6.652c.004-10.77.004-30.416.004-30.416 0-1.537-.722-2.888-1.828-3.808.058-.151.082-.303.082-.466v-2.329c0-.023-.01-.044-.011-.067V25.42l16.047 50.59-14.294-9.108zm15.762 9.876L33.94 22.242h5.776l19.006 54.536h-7.488zm12.006-5.636c-.105.489-.233 1.048-.233 1.7 0 .442.035.967.07 1.514.093 1.339.21 3.016-.279 3.878-.21.361-.873.582-1.724.582-1.06 0-1.922-.349-2.073-.594-.047-.093-.116-.186-.175-.28h.71a.605.605 0 0 0 .477-.245.56.56 0 0 0 .07-.524l-2.958-8.49.745-11.005c1.13.815 2.038 1.595 2.317 2.585.373 1.281.116 2.527-.093 3.633-.245 1.188-.443 2.213.233 2.935.501.524 1.002.71 1.432.885.536.21.908.361 1.328 1.095.468.828.328 1.457.153 2.331zm1.072 5.636c.012-.21.012-.419.012-.629 0-.629-.035-1.269-.082-1.875-.035-.512-.07-1.013-.07-1.432 0-.524.105-1.002.198-1.467.21-.943.408-1.922-.268-3.133-.617-1.083-1.304-1.363-1.91-1.607-.373-.14-.699-.268-1.013-.606-.268-.279-.116-1.071.058-1.91.233-1.165.512-2.62.082-4.169-.443-1.549-1.782-2.539-3.354-3.633l.268-3.89a2.313 2.313 0 0 0-.419-1.479l-4.705-6.58c.058-.291.105-.571.163-.839.489-2.609.885-4.67.116-5.706-1.421-1.898-4.716-8.362-5.182-10.446-.14-.617-.221-1.444-.303-2.306-.082-.978-.175-1.956-.361-2.83h2.667l20.718 54.536h-6.615zm7.174-1.805L52.841 25.898l-.047-.71 19.518 50.274-.826-.489zm2.317 1.095L52.724 21.776l5.636-.175 22.837 54.245-7.394.222zm11.948.105c-.21.443-1.013.734-2.003.734-.489 0-.897-.07-1.211-.163.012-.012.023-.012.023-.023a.65.65 0 0 0 .047-.547l-1.956-4.647-.151-14.755c.652.501 1.165 1.025 1.397 1.677.454 1.246.291 2.504.151 3.622-.151 1.211-.291 2.248.443 2.911.536.489 1.048.64 1.491.792.547.175.932.291 1.397.99.524.792.431 1.432.314 2.306-.07.512-.151 1.071-.105 1.712.023.454.105.967.175 1.514.186 1.326.419 2.991-.012 3.877zm1.345-.505c.163-1.079-.015-2.363-.18-3.536-.07-.512-.14-1.002-.175-1.432-.035-.512.035-1.002.105-1.467.128-.955.268-1.945-.501-3.109-.687-1.036-1.386-1.269-2.015-1.467-.384-.116-.71-.221-1.06-.536-.279-.256-.175-1.06-.07-1.898.151-1.188.338-2.667-.21-4.169-.431-1.165-1.351-1.968-2.504-2.713l-.058-5.345c0-.873-.314-1.7-.873-2.364l-5.602-6.685c.221-2.015.279-3.599-.431-4.414-1.549-1.793-5.287-8.001-5.904-10.062-.186-.594-.314-1.409-.454-2.271-.157-.982-.324-1.972-.578-2.846l2.373-.072 24.566 54.193-6.429.193z"></path></g><!----></svg>